<svg width="1237" height="958" viewBox="0 0 1237 958" fill="none" xmlns="http://www.w3.org/2000/svg">
<path d="M1225.27 256.591C1232.73 263.586 1237 273.256 1237 283.479V668.525C1237 684.483 1231.77 700.002 1222.11 712.705L1082 897C1082 897 1082 3.9143 1082 66.1034C1082 117.809 1189.15 222.698 1225.27 256.591Z" fill="#979696"/>
<path fill-rule="evenodd" clip-rule="evenodd" d="M56 0C25.0721 0 0 25.0721 0 56V902C0 932.928 25.0721 958 56 958H1026C1056.93 958 1082 932.928 1082 902V56C1082 25.0721 1056.93 0 1026 0H56ZM112 131C108.686 131 106 133.686 106 137V672C106 675.314 108.686 678 112 678H861C864.314 678 867 675.314 867 672V137C867 133.686 864.314 131 861 131H112Z" fill="#F0ECEC"/>
</svg>
